# xmcd
#
# Track frame offsets: 
#        150
#        12831
#        28632
#        46209
#        64305
#        80966
#        97690
#        115725
#        129221
#        149024
#        168207
#        185541
#        202573
#        220864
#        240381
#        256785
#
# Disc length: 3659 seconds
#
# Revision: 1
# Processed by: cddbd v1.5.2PL0 Copyright (c) Steve Scherf et al.
# Submitted via: ExactAudioCopy v0.99pb5
#
DISCID=cc0e4910
DTITLE=Twista - The Day After
DYEAR=2005
DGENRE=Rap
TTITLE0=Day After (feat. Syleena Johnson)
TTITLE1=Check That H**
TTITLE2=Chocolate Fe's and Redbones (feat. Johnny P)
TTITLE3=Get It How You Live
TTITLE4=Lavish (feat. Pharrell)
TTITLE5=Girl Tonite (feat. Trey Songz)
TTITLE6=Do Wrong (feat. Lil' Kim)
TTITLE7=Heartbeat
TTITLE8=Holding Down The Game
TTITLE9=When I Get You Home (A.I.O.U.) (feat. Jamie Foxx and Pharrell)
TTITLE10=So Lonely (feat. Mariah Carey)
TTITLE11=Had To Call (feat. Snoop Dogg and Sleepy Eyed Jones)
TTITLE12=Out Here (feat. Juvenile and Speedknot Mobstaz)
TTITLE13=I'm A Winner
TTITLE14=Hit The Floor (feat. Pitbull)
TTITLE15=Glory [Bonus Track]
EXTD=YEAR: 2005
EXTT0=
EXTT1=
EXTT2=
EXTT3=
EXTT4=
EXTT5=
EXTT6=
EXTT7=
EXTT8=
EXTT9=
EXTT10=
EXTT11=
EXTT12=
EXTT13=
EXTT14=
EXTT15=
PLAYORDER=
